<?xml version="1.0" standalone="no"?>
<!DOCTYPE svg PUBLIC "-//W3C//DTD SVG 20010904//EN"
 "http://www.w3.org/TR/2001/REC-SVG-20010904/DTD/svg10.dtd">
<svg version="1.0" xmlns="http://www.w3.org/2000/svg"
 width="173.000000pt" height="173.000000pt" viewBox="0 0 173.000000 173.000000"
 preserveAspectRatio="xMidYMid meet">
<metadata>
Created by potrace 1.11, written by Peter Selinger 2001-2013
</metadata>
<g transform="translate(0.000000,173.000000) scale(0.100000,-0.100000)"
fill="#000000" stroke="none">
<path d="M0 865 l0 -865 865 0 865 0 0 865 0 865 -865 0 -865 0 0 -865z m1492
488 c43 -43 78 -82 78 -88 0 -6 -30 -41 -68 -78 l-67 -67 -85 85 -85 85 70 70
c38 38 72 70 75 70 2 0 40 -35 82 -77z m-290 -170 c18 -16 8 -28 -264 -300
-297 -298 -296 -295 -245 -327 14 -9 62 34 300 272 l283 282 37 -38 37 -37
-369 -369 -369 -369 -149 -68 c-81 -37 -149 -65 -151 -64 -2 2 25 68 59 147
l62 143 371 373 c204 204 373 372 375 372 2 0 13 -8 23 -17z"/>
<path d="M546 481 c-39 -40 -102 -163 -87 -169 17 -6 127 52 164 87 44 42 45
49 10 53 -20 2 -29 11 -37 36 l-11 33 -39 -40z"/>
</g>
</svg>
